<svg width="160" height="128" viewBox="0 0 160 128" fill="none" xmlns="http://www.w3.org/2000/svg">
<g clip-path="url(#clip0_458_6609)">
<path d="M116.161 25.3037C116.161 25.3037 141.568 47.69 141.863 87.8022C142.157 127.915 125.965 159.562 125.965 159.562C125.965 159.562 129.675 143.252 112.687 147.057C99.7925 149.918 88.3403 160.477 67.1429 153.811C54.3069 149.77 57.5453 133.283 47.3883 139.241C38.8506 144.255 26.1323 135.642 26.1323 135.642C26.1323 135.642 44.0027 128.623 57.5453 100.662C71.0879 72.7014 71.9417 24.8318 71.9417 24.8318C71.9417 24.8318 84.5714 21.4694 99.3509 22.2658C109.979 22.8557 116.161 25.3037 116.161 25.3037Z" fill="#1B2647"/>
<path d="M44.5299 138.947C51.4778 136.057 53.9508 129.007 59.5739 124.259C66.198 118.655 75.5306 127.415 73.2637 143.401C72.2922 150.303 84.5102 154.609 95.1969 145.702C105.884 136.794 117.512 116.531 121.075 90.0454C123.607 71.1693 125.374 41.0257 107.503 23.8304C104.883 23.152 102.086 22.5916 99.3185 22.2966C84.5985 20.645 71.9094 24.8627 71.9094 24.8627C71.9094 24.8627 71.0557 72.7322 57.5131 100.693C43.9705 128.653 26.1001 135.674 26.1001 135.674C26.1001 135.674 35.4033 142.781 44.5299 138.947Z" fill="#18203A"/>
<path d="M60.4572 107.476C71.4384 79.6339 74.7063 39.4328 76.7966 23.7713C73.617 24.2726 71.9095 24.833 71.9095 24.833C71.9095 24.833 67.5228 69.9008 53.9802 97.8611C40.4376 125.822 26.1001 135.673 26.1001 135.673C26.1001 135.673 27.0717 144.934 39.7016 146.704C46.1785 135.348 55.7467 119.422 60.4572 107.476Z" fill="#253B6D"/>
<path d="M39.7026 146.705C46.1795 135.35 55.7476 119.452 60.4581 107.507C71.4394 79.6646 74.7073 39.4634 76.7976 23.8018" stroke="#1B1733" stroke-width="0.64" stroke-miterlimit="10" stroke-linecap="round" stroke-linejoin="round"/>
<path d="M123.55 135.762C122.872 137.295 122.372 138.918 122.048 140.599C121.989 140.953 121.93 141.366 122.225 141.601C122.637 141.955 123.255 141.484 123.579 141.041C127.023 136.204 128.908 130.482 131.174 124.996C131.557 124.052 132.499 121.781 133.471 122.135C134.619 122.548 133.618 125.881 133.294 127.474C131.852 134.847 130.085 141.867 127.818 147.825" stroke="#1B1733" stroke-width="0.64" stroke-miterlimit="10" stroke-linecap="round" stroke-linejoin="round"/>
<path d="M67.7301 138.239C67.7301 138.239 67.1413 141.837 68.6722 146.703C69.1727 148.326 70.0854 149.889 70.0854 149.889C70.0854 149.889 70.4387 152.721 71.3513 156.761C75.7968 156.172 81.1253 159.799 86.7784 159.386C86.8078 159.298 86.8078 159.209 86.7784 159.18C86.1595 157.351 85.4529 154.372 83.8337 152.072C82.2145 149.741 80.3598 147.057 80.507 144.934C80.772 141.1 85.9829 132.93 86.6894 128.034C87.396 123.137 91.4299 103.819 73.7948 96.8582C70.6153 95.5898 69.4082 97.2121 68.2601 101.843C67.1119 106.502 63.0786 118.33 63.7851 125.999C64.4917 133.638 67.7301 138.239 67.7301 138.239Z" fill="#237DBD"/>
<path d="M73.6483 110.013C74.2665 114.319 75.0908 121.663 76.0918 118.802C76.7983 116.826 81.5973 118.802 82.2156 125.556C82.8338 132.31 81.5973 135.112 79.1536 139.005C76.7101 142.899 73.03 141.719 74.2665 142.722C75.503 143.754 77.7405 144.55 78.5648 147.028C79.2714 149.122 81.0085 148.444 83.6581 151.777C82.0978 149.446 80.4197 146.969 80.5375 144.934C80.8024 141.1 86.0133 132.93 86.7199 128.034C87.4264 123.137 91.4597 103.819 73.8249 96.8582C71.9702 96.121 70.7631 95.9437 69.8799 96.8288C72.0879 98.2445 73.03 105.706 73.6483 110.013Z" fill="#116DB0"/>
<path d="M43.5002 61.4947C45.4139 57.6309 48.1518 53.9146 50.9781 51.0241C49.3883 49.5494 47.2097 48.3991 44.2068 47.7207C38.4659 46.423 33.1078 42.9426 31.1942 40.819C31.1058 40.7305 31.3119 38.8134 31.7241 36.6308C32.1362 34.4777 28.8389 27.9889 27.779 29.3752C27.3374 29.9651 27.573 31.2628 27.4258 32.0591C27.2786 32.826 26.8075 33.062 26.8664 33.121L24.6878 30.26C24.6878 30.26 20.3306 25.8948 19.0058 26.8387C16.8861 28.3724 17.6515 36.3359 19.3591 39.5507C20.0657 40.9075 22.1854 41.8218 25.0999 43.6505C26.1304 44.2993 25.8654 44.7123 26.5131 45.6856C27.6613 47.4847 28.5739 47.6617 30.9881 51.9384C32.6073 54.7994 37.4061 61.0817 42.2343 64.208C42.5876 63.4118 43.1175 62.2615 43.5002 61.4947Z" fill="#253B6D"/>
<path d="M63.9042 29.2569C59.6059 33.1501 59.812 36.3946 59.812 36.3946C59.812 36.3946 57.3978 39.1965 55.0425 45.8328C53.1878 51.0533 53.6 53.0294 52.9817 52.6165C51.5392 51.6432 51.2153 51.8202 50.6854 51.3188C47.8591 54.2092 45.4155 57.6011 43.5019 61.4649C43.1192 62.2612 42.7364 63.0576 42.4126 63.8539C43.0603 64.2669 44.2085 65.5059 46.0043 66.3315C49.5372 67.9539 50.3615 69.1923 51.9808 70.048C54.8953 71.5814 56.5441 68.8973 56.5441 68.8973C56.5441 68.8973 59.017 67.1866 61.3428 65.1219C64.1986 62.6152 67.9964 58.4269 70.1161 55.8314C72.5302 52.9115 74.3261 48.6347 74.3261 48.6347C74.3261 48.6347 83.4529 39.6979 81.3332 32.6783C79.2132 25.7176 71.912 22.0012 63.9042 29.2569Z" fill="#237DBD"/>
<path d="M64.376 54.2091C64.1993 56.9521 63.9638 62.969 66.7901 67.8355C70.2052 73.705 71.4711 77.3325 71.9127 81.7274C72.0894 83.5853 72.2366 86.6234 72.1188 88.4224L105.239 88.2163C105.003 86.535 104.856 84.1754 105.268 81.6685C106.093 76.7725 106.564 75.4746 109.979 71.7286C113.395 67.9827 121.549 55.7428 122.344 46.7765C123.169 37.8102 128.703 26.8972 111.01 23.0924C94.2284 19.4941 80.0972 21.0278 72.6487 24.7736C62.5212 29.8467 61.6675 44.299 61.6675 47.5728C61.6675 50.8467 64.4937 52.233 64.376 54.2091Z" fill="#378DCC"/>
<path d="M71.1159 24.5083C70.2327 24.8033 68.9668 25.3932 68.2308 26.9859C67.112 29.4634 67.2887 30.5842 68.9079 30.6727C71.2043 30.8202 72.4997 30.7022 73.2651 29.139C74.2366 27.0744 75.7675 25.3637 76.8863 24.2429C78.005 23.1221 78.8293 22.8272 78.8293 22.8272C78.8293 22.8272 77.7695 22.4143 75.7086 22.9746C73.5595 23.5645 72.7058 23.9775 71.1159 24.5083Z" fill="#1B2647"/>
<path d="M70.9193 29.048C71.7142 28.8775 72.2344 28.1581 72.0812 27.4414C71.928 26.7247 71.1594 26.2819 70.3645 26.4524C69.5695 26.623 69.0493 27.3423 69.2025 28.0591C69.3558 28.7758 70.1243 29.2186 70.9193 29.048Z" fill="#2983C5"/>
<path d="M119.046 54.74C119.724 46.6291 113.365 40.6122 113.247 40.3763C112.246 41.9985 106.888 51.2597 106.034 52.351C104.356 54.4746 99.4682 54.3566 92.8737 52.7639C89.5469 51.9676 85.0721 49.9914 81.0388 50.8468C78.8897 51.2892 80.4794 50.8468 83.865 51.6726C90.2535 53.2063 94.905 56.1558 96.2593 57.2176C98.4673 58.9578 98.3495 59.2232 98.1729 59.8721C97.6429 61.9662 94.1396 63.2934 91.8727 63.146C89.6058 62.9985 90.4596 66.567 91.8138 69.3101C93.1681 72.0531 98.0845 73.7638 97.6429 79.5744C97.5252 81.049 97.2308 84.1165 98.2317 83.8803C101.324 83.2019 103.826 83.4675 105.033 83.7037C105.504 80.0461 106.417 76.3008 107.565 74.7078C108.36 73.5872 112.128 69.7824 114.101 66.5376C115.69 63.9423 118.016 60.1375 119.135 57.542C118.634 56.9816 118.988 55.5659 119.046 54.74Z" fill="#237DBD"/>
<path d="M81.0996 4.54042C81.8945 1.97441 82.0417 1.62047 83.7198 0.971597C86.3105 -0.0312169 96.2907 -0.326162 101.148 0.4112C102.65 0.647155 103.091 0.676653 104.269 2.77076C105.476 4.95334 106.565 7.10643 107.772 11.2061C109.421 16.6922 109.745 22.827 109.745 22.827C109.745 22.827 108.184 22.6795 103.886 24.0952C100.03 25.3635 93.8177 28.9914 85.9572 27.7821C83.3371 27.3692 80.5697 25.1276 79.4802 24.1542C78.7442 23.4758 78.0376 23.3579 78.0376 23.3579C78.0376 23.3579 79.5685 9.46598 81.0996 4.54042Z" fill="#9CD6ED"/>
<path d="M105.857 89.5437C105.386 88.5702 105.151 87.6262 105.033 85.296C97.673 87.3017 89.4291 87.9801 81.0682 87.9801C78.0655 87.9801 75.1214 87.833 72.2068 87.5674C71.5002 90.1926 71.0586 92.0506 70.4993 93.9379C69.4689 97.4477 69.145 98.8045 69.145 98.8045C69.145 98.8045 71.2353 99.0995 73.1194 101.43C75.0331 103.76 76.5934 107.063 78.3893 109.364C82.1869 114.289 87.6038 114.142 87.6038 114.142C87.6038 114.142 89.9008 106.591 93.257 102.344C96.6131 98.0966 100.941 96.2387 104.326 97.3005C109.743 98.9818 109.39 107.034 109.39 107.034C109.39 107.034 110.95 99.5418 109.184 95.8848C107.418 92.2272 106.623 91.1654 105.857 89.5437Z" fill="#253B6D"/>
<path d="M71.7924 85.2077C71.7924 85.2077 75.5313 87.7446 81.7724 87.3318C87.9849 86.9184 93.814 84.8243 98.23 83.8809C102.646 82.9075 105.826 83.8809 105.826 83.8809L106.385 89.4259C106.385 89.4259 102.793 87.6262 98.9071 89.4259C95.0505 91.2249 86.4245 94.4985 81.3897 94.2329C76.6206 93.968 74.0299 92.6112 72.9405 91.6672C71.4096 90.3398 71.1152 90.0742 71.1152 90.0742L71.7924 85.2077Z" fill="#253B6D"/>
<path d="M106.385 89.4259C106.385 89.4259 102.793 87.6269 98.9071 89.4259C95.0505 91.225 86.4245 94.4992 81.3897 94.2336C76.6206 93.968 74.0299 92.6112 72.9405 91.6672C71.4096 90.3405 71.1152 90.0749 71.1152 90.0749" stroke="#191D2B" stroke-width="0.64" stroke-miterlimit="10" stroke-linecap="round" stroke-linejoin="round"/>
<path d="M83.3056 94.912C81.0976 95.1475 78.8897 94.8531 76.6817 94.617C75.7985 94.5286 75.0625 93.673 75.0625 92.7885C75.0625 90.9594 75.0625 89.2787 75.0625 87.4496C75.0625 86.5651 75.7985 85.9456 76.6817 86.0339C78.8897 86.2701 81.0976 86.3878 83.3056 86.1523C84.1888 86.0634 84.9248 86.6534 84.9248 87.568C84.9248 89.3965 84.9248 91.2544 84.9248 93.0829C84.9248 93.968 84.1888 94.7936 83.3056 94.912Z" fill="#3CB8EB"/>
<path d="M30.6947 34.6542L24.0411 37.8396C23.1579 38.2526 22.1275 37.8396 21.8036 36.9253L16.0922 20.7919C15.7684 19.8775 16.3277 18.8747 17.2993 18.6682L24.5711 17.164C25.366 16.9871 26.1608 17.459 26.4258 18.2259L31.519 32.7076C31.7839 33.445 31.4307 34.3003 30.6947 34.6542Z" fill="#9CD6ED"/>
<path d="M140.419 80.0467C136.121 80.0467 131.999 79.3683 128.143 78.1293C127.524 80.2234 127.053 82.5536 127.789 85.5622C129.173 91.2838 128.496 93.5846 127.995 97.0061C127.642 99.5424 127.613 99.9846 127.613 100.044C127.495 100.132 126.052 100.899 123.903 101.489C121.784 102.079 120.312 105.559 120.93 106.208C121.99 107.299 121.666 107.978 121.725 107.83C121.725 107.83 120.459 110.986 121.872 111.841C124.168 113.198 123.874 111.694 124.551 111.841C127.672 112.638 128.849 112.726 129.85 112.52C131.44 112.225 132.47 111.252 132.47 111.252C132.47 111.252 132.765 109.688 133.089 106.267C133.412 102.845 136.268 99.4835 137.711 96.0621C139.006 93.024 142.392 85.7094 143.039 80.0173C142.156 80.0173 141.302 80.0467 140.419 80.0467Z" fill="#253B6D"/>
<path d="M117.751 48.34C117.751 48.34 117.191 54.7698 120.842 60.7572C124.198 66.2432 129.762 67.5117 129.438 72.9382C129.32 75.0618 128.025 78.5126 128.143 78.1293C131.999 79.3683 136.121 80.0467 140.42 80.0467C141.303 80.0467 142.186 80.0173 143.04 79.9584C143.128 79.191 143.158 78.4538 143.158 77.7754C142.981 71.9059 143.629 69.1923 143.923 67.3933C144.483 63.9721 141.833 62.7333 141.833 62.7333C141.833 62.7333 140.037 59.6659 139.919 56.569C139.802 54.121 138.919 49.6378 137.653 46.5409C136.239 43.031 133.354 39.3737 133.354 39.3737C133.354 39.3737 132.117 28.3722 124.963 26.8975C117.809 25.4228 116.838 25.9242 114.542 26.7206C110.744 28.0773 109.655 33.7402 111.362 39.2852C113.07 44.8301 117.751 48.34 117.751 48.34Z" fill="#378DCC"/>
<path d="M84.4224 17.6362C86.6304 18.6686 89.2505 18.875 91.6057 18.1966C91.5174 18.2261 91.4291 18.2851 91.3408 18.3146" stroke="#1B1733" stroke-width="0.64" stroke-miterlimit="10" stroke-linecap="round" stroke-linejoin="round"/>
<path d="M83.2123 10.4392C83.1534 10.6751 83.1534 10.9111 83.1534 11.1471C83.1534 11.383 83.2417 11.678 83.4478 11.737C83.8011 11.8549 84.0366 11.383 84.0955 11.0291C84.1543 10.7341 84.1838 10.4097 84.066 10.1443C83.9483 9.87879 83.595 9.67232 83.33 9.81978C83.0945 9.9378 83.0356 10.2327 83.0062 10.4687C82.9179 11.1176 82.9179 11.9139 83.4478 12.3269C83.5361 12.3859 83.6539 12.4448 83.7422 12.4153C83.8599 12.3859 83.9188 12.2383 83.9777 12.1204C84.1249 11.7075 84.1838 11.2355 84.1838 10.7932C84.1838 10.5572 84.1543 10.3507 84.0366 10.1443C83.9188 9.9378 83.6539 9.84928 83.4478 9.90829C83.2417 9.9673 83.1534 10.3212 83.33 10.4392" fill="#1B1733"/>
<path d="M83.2123 10.4392C83.1534 10.6751 83.1534 10.9111 83.1534 11.1471C83.1534 11.383 83.2417 11.678 83.4478 11.737C83.8011 11.8549 84.0366 11.383 84.0955 11.0291C84.1543 10.7341 84.1838 10.4097 84.066 10.1443C83.9483 9.87879 83.595 9.67232 83.33 9.81978C83.0945 9.9378 83.0356 10.2327 83.0062 10.4687C82.9179 11.1176 82.9179 11.9139 83.4478 12.3269C83.5361 12.3859 83.6539 12.4448 83.7422 12.4153C83.8599 12.3859 83.9188 12.2383 83.9777 12.1204C84.1249 11.7075 84.1838 11.2355 84.1838 10.7932C84.1838 10.5572 84.1543 10.3507 84.0366 10.1443C83.9188 9.9378 83.6539 9.84928 83.4478 9.90829C83.2417 9.9673 83.1534 10.3212 83.33 10.4392" stroke="#1B1733" stroke-width="0.64" stroke-miterlimit="10" stroke-linecap="round" stroke-linejoin="round"/>
<path d="M92.163 11.0285C92.1042 11.4415 92.0453 11.8544 92.1925 12.2378C92.3397 12.6212 92.7518 12.9457 93.164 12.7982C93.6939 12.6212 93.7234 11.8839 93.6645 11.3235C93.6056 10.9695 93.5467 10.5861 93.2523 10.4091C92.8402 10.1732 92.2808 10.5272 92.163 10.9695C92.0453 11.412 92.163 11.9134 92.3102 12.3558C92.3691 12.5033 92.428 12.6802 92.5458 12.7982C92.899 13.0932 93.4584 12.6802 93.4584 12.2378C93.4878 11.7954 93.1934 11.412 92.899 11.058C92.8107 10.9695 92.7224 10.8516 92.6046 10.8516C92.3986 10.8516 92.3102 11.1466 92.3397 11.353C92.3691 11.8544 92.4574 12.3558 92.6046 12.8277" fill="#1B1733"/>
<path d="M92.163 11.0285C92.1042 11.4415 92.0453 11.8544 92.1925 12.2378C92.3397 12.6212 92.7518 12.9457 93.164 12.7982C93.6939 12.6212 93.7234 11.8839 93.6645 11.3235C93.6056 10.9695 93.5467 10.5861 93.2523 10.4091C92.8402 10.1732 92.2808 10.5272 92.163 10.9695C92.0453 11.412 92.163 11.9134 92.3102 12.3558C92.3691 12.5033 92.428 12.6802 92.5458 12.7982C92.899 13.0932 93.4584 12.6802 93.4584 12.2378C93.4878 11.7954 93.1934 11.412 92.899 11.058C92.8107 10.9695 92.7224 10.8516 92.6046 10.8516C92.3986 10.8516 92.3102 11.1466 92.3397 11.353C92.3691 11.8544 92.4574 12.3558 92.6046 12.8277" stroke="#1B1733" stroke-width="0.64" stroke-miterlimit="10" stroke-linecap="round" stroke-linejoin="round"/>
<path d="M85.1284 7.136C83.568 6.28064 82.0666 7.01799 81.625 7.93236" stroke="#1B1733" stroke-width="0.64" stroke-miterlimit="10" stroke-linecap="round" stroke-linejoin="round"/>
<path d="M91.4849 6.22143C92.7802 3.86187 94.8705 5.39558 96.1364 6.72281" stroke="#1B1733" stroke-width="0.64" stroke-miterlimit="10" stroke-linecap="round" stroke-linejoin="round"/>
<path d="M109.83 22.7971C109.83 22.7971 107.063 25.1862 105.679 27.7227C104.06 30.6722 103.854 32.0584 105.444 32.7663C107.711 33.7986 109.036 34.123 110.184 32.3534C111.685 30.0233 113.569 27.5752 114.953 26.5429C116.337 25.4812 117.897 25.1862 117.897 25.1862C117.897 25.1862 116.484 24.2719 113.893 23.5345C111.126 22.7087 109.83 22.7971 109.83 22.7971Z" fill="#1B2647"/>
<path d="M107.999 28.8399C107.212 28.6377 106.426 29.0494 106.244 29.7594C106.063 30.4695 106.554 31.2091 107.341 31.4113C108.129 31.6136 108.914 31.2018 109.096 30.4918C109.278 29.7817 108.787 29.0422 107.999 28.8399Z" fill="#2983C5"/>
<path d="M65.4926 52.2327C65.0216 51.7313 64.58 51.23 64.1089 50.699C63.9912 50.5811 63.8734 50.3746 63.9912 50.2271C64.05 50.1681 64.1384 50.1386 64.2267 50.1386C68.8194 49.4898 73.5299 48.723 78.0342 49.7847C74.1775 51.0235 69.7909 50.5516 66.0225 51.9968L65.4926 52.2327Z" fill="#237DBD"/>
<path d="M70.2925 40.9368C73.0305 46.0983 75.8568 51.2008 78.8008 56.2149C83.0106 51.1123 87.8682 46.7767 92.9914 42.6179C92.9619 40.4353 92.9619 39.3441 93.0208 37.2794C86.8083 36.955 80.567 36.66 74.3553 36.3356C72.5594 38.0463 71.7645 38.9902 70.2925 40.9368Z" fill="#253B6D"/>
<path d="M80.9779 44.0046C79.6236 43.8866 78.181 44.9484 77.8572 46.3936C77.5333 47.8389 78.4165 49.1366 79.7413 49.2546C81.0663 49.3726 82.3616 48.2813 82.7443 46.836C83.1271 45.3909 82.3322 44.1226 80.9779 44.0046Z" fill="#3CB8EB"/>
<path d="M84.8092 49.7853C85.8396 48.7825 86.3695 48.2811 87.5176 47.2783C87.3704 43.8274 87.341 40.4946 87.4882 37.0437C87.6648 35.3626 86.7522 34.3597 85.1036 34.3007C83.4549 34.2712 81.364 35.1266 79.9806 36.6308C77.2721 39.4623 74.9463 42.6477 73.0327 46.0395C73.651 47.1603 73.9748 47.7502 74.593 48.871C76.8305 44.8008 79.2741 41.2319 82.2178 37.6336C82.6888 37.1027 83.2488 36.7783 83.7199 36.8077C84.1909 36.8372 84.4264 37.1617 84.3676 37.781C84.1615 41.7923 84.3676 45.8036 84.8092 49.7853Z" fill="#3CB8EB"/>
<path d="M51.3901 56.0676C51.5668 55.5072 51.7434 54.9173 51.9201 54.3569C51.9789 54.1505 52.0378 53.944 52.185 53.7965C52.3322 53.649 52.5677 53.5901 52.7444 53.708C52.8621 53.7965 52.921 53.9735 52.9505 54.121C53.0977 54.6813 53.2743 55.2417 53.4804 55.7726C53.6276 56.1265 53.922 56.51 54.2753 56.4215C54.452 55.5661 54.4225 54.6813 54.2459 53.8261C54.2164 53.649 54.1576 53.4426 54.187 53.2656C54.2164 53.0886 54.3636 52.8822 54.5403 52.8822C54.7758 52.8527 54.923 53.0591 55.0408 53.2656C55.3352 53.708 55.6001 54.18 55.8063 54.6518" stroke="#1B1733" stroke-width="0.64" stroke-miterlimit="10" stroke-linecap="round" stroke-linejoin="round"/>
<path d="M132.145 66.7443C131.556 67.2755 129.084 68.455 130.261 68.9862C131.115 69.3696 133.441 67.7766 133.941 68.9267C134.353 69.9296 130.32 69.753 130.379 71.1981C130.408 71.9942 132.44 71.6403 133.352 71.5814" stroke="#1B1733" stroke-width="0.64" stroke-miterlimit="10" stroke-linecap="round" stroke-linejoin="round"/>
<path d="M117.751 48.34C117.751 48.34 117.192 54.7698 120.842 60.7572C124.198 66.2432 129.763 67.5117 129.439 72.9382C129.321 75.0618 128.026 78.5126 128.143 78.1293" stroke="#1B1733" stroke-width="0.64" stroke-miterlimit="10" stroke-linecap="round" stroke-linejoin="round"/>
<path d="M114.042 44.4762C116.309 48.399 120.519 49.7263 120.519 49.7263" stroke="#1B1733" stroke-width="0.64" stroke-miterlimit="10" stroke-linecap="round" stroke-linejoin="round"/>
<path d="M138.004 80.2822C134.589 80.0755 130.585 79.2794 127.465 78.247" stroke="#1B1733" stroke-width="0.64" stroke-miterlimit="10" stroke-linecap="round" stroke-linejoin="round"/>
<path d="M85.7178 51.643C87.7786 52.1444 89.8099 52.8523 91.753 53.7076C93.7549 54.5924 95.6979 55.6543 97.7587 56.3621C99.849 57.0405 102.145 57.3354 104.206 56.6276C107.062 55.6248 108.975 52.9408 110.653 50.4337" stroke="#1B1733" stroke-width="0.64" stroke-miterlimit="10" stroke-linecap="round" stroke-linejoin="round"/>
<path d="M106.237 162.836C106.649 162.689 108.239 162.129 109.446 161.067C111.625 159.18 114.009 156.23 116.365 155.729C117.837 155.404 119.456 156.378 120.987 156.702C120.693 155.64 120.281 154.519 119.751 153.516C118.102 150.39 114.922 146.438 114.922 146.438C114.922 146.438 114.51 144.58 114.098 141.866C113.685 139.153 112.861 138.12 112.861 138.12C112.861 138.12 116.13 134.109 114.245 123.727C112.39 113.315 109.476 104.614 108.651 101.075C107.827 97.536 107.209 96.0909 104.912 95.6486C102.616 95.2058 98.0822 95.4714 93.8134 100.161C91.2227 103.022 90.3101 105.676 88.4554 108.567C86.6006 111.487 87.0717 116.472 90.1334 123.491C97.6112 140.627 98.3766 132.575 101.232 142.721C102.528 147.323 106.267 148.591 105.678 152.1C104.824 157.262 106.119 162.394 106.237 162.836Z" fill="#378DCC"/>
<path d="M41.4702 65.4163C41.7941 64.6202 42.8833 61.9951 43.3249 61.2283C44.9442 58.3379 46.0629 56.2732 47.7999 54.0906" stroke="#1B1733" stroke-width="0.64" stroke-miterlimit="10" stroke-linecap="round" stroke-linejoin="round"/>
<path d="M107.182 102.315C106.976 105.235 107.623 108.42 110.273 114.673C112.981 120.985 112.481 133.549 112.628 132.517C112.216 135.85 111.598 136.263 110.126 135.437C108.683 134.611 106.034 126.913 106.74 130.246C107.447 133.579 107.712 136.086 106.74 138.15C105.769 140.244 108.065 138.563 110.126 139.596C112.216 140.628 113.452 143.961 113.659 146.468C113.865 148.975 114.247 148.769 116.956 151.866C118.222 153.34 119.664 154.992 120.724 156.673C120.812 156.703 120.901 156.703 120.96 156.732C120.665 155.67 120.253 154.549 119.723 153.547C118.075 150.42 114.895 146.468 114.895 146.468C114.895 146.468 114.483 144.61 114.071 141.896C113.659 139.183 112.834 138.15 112.834 138.15C112.834 138.15 116.102 134.14 114.218 123.757C112.363 113.346 109.449 104.644 108.624 101.105C107.947 98.2739 107.417 96.7699 106.063 96.0621C107.005 98.3622 107.299 100.575 107.182 102.315Z" fill="#237DBD"/>
</g>
<defs>
<clipPath id="clip0_458_6609">
<rect width="128" height="128" fill="white" transform="translate(16)"/>
</clipPath>
</defs>
</svg>
